# xmcd
#
# Track frame offsets: 
#        150
#        18224
#        33863
#        45192
#        64783
#        80208
#        97132
#        110847
#
# Disc length: 1712 seconds
#
# Revision: 0
# Processed by: cddbd v1.5.2PL0 Copyright (c) Steve Scherf et al.
# Submitted via: ExactAudioCopy v0.95b4
#
DISCID=6106ae08
DTITLE=The Judds - (Wyonna and Naomi) Collector's Series
DYEAR=1990
DGENRE=Country
TTITLE0=Love Is Alive
TTITLE1=Isn't He A Strange One
TTITLE2=Sleepless Nights
TTITLE3=Water Of Love
TTITLE4=Have Mercy
TTITLE5=Cry Myself To Sleep
TTITLE6=I Wish She Wouldn't Treat You That Way
TTITLE7=Tears For You
EXTD=
EXTT0=
EXTT1=
EXTT2=
EXTT3=
EXTT4=
EXTT5=
EXTT6=
EXTT7=
PLAYORDER=
